<?xml version="1.0" encoding="UTF-8" standalone="no"?>
<!DOCTYPE svg PUBLIC "-//W3C//DTD SVG 1.1//EN" "http://www.w3.org/Graphics/SVG/1.1/DTD/svg11.dtd">
<svg width="100%" height="100%" viewBox="0 0 222 296" version="1.1" xmlns="http://www.w3.org/2000/svg" xmlns:xlink="http://www.w3.org/1999/xlink" xml:space="preserve" xmlns:serif="http://www.serif.com/" style="fill-rule:evenodd;clip-rule:evenodd;stroke-linejoin:round;stroke-miterlimit:2;">
    <g transform="matrix(1,0,0,1,-685.972,-515.472)">
        <g id="StereoIconWider" transform="matrix(-1,0,0,1,1622.78,-334.625)">
            <g id="Merged" transform="matrix(0.295661,0,0,0.295661,659.001,779.629)">
                <path d="M307.961,1009.11C304.644,1004.23 302.07,998.7 300.496,992.614C293.442,965.335 396.563,798.989 449.258,721.979C498.798,649.581 716.037,279.87 739.814,239.779C741.722,236.562 747.515,239.165 745.378,243.483C735.822,262.801 641.349,451.081 572.093,593.781C643.33,585.367 660.538,588.201 731.762,596.383C775.738,601.434 784.365,649.491 761.274,650.502C761.274,730.401 761.086,738.78 761.086,778.65C761.086,827.472 892.129,843.766 892.129,910.993C892.129,990.694 910.76,1124.38 875.149,1148.54C767.843,1221.34 566.243,1218.78 422.779,1160.46C389.091,1146.76 385.372,1078.63 387.299,1010.08C380.571,1020.15 374.416,1026.92 369.091,1029.28C362.624,1032.14 355.583,1033.22 348.536,1032.75C342.114,1051.79 345.778,1092.23 334.767,1106.23C295.501,1156.18 243.636,1162.51 189.256,1237.37C262.095,1097.74 294.08,1036.03 307.961,1009.11ZM524.517,693.378C514.623,714.633 507.021,731.573 502.656,742.355C493.822,764.179 483.216,791.836 471.75,821.347C499.963,803.9 524.786,789.004 524.786,777.452C524.786,746.359 524.599,730.408 524.517,693.378Z" style="fill:rgb(0,204,255);"/>
            </g>
            <g id="Merged1" serif:id="Merged" transform="matrix(0.295661,0,0,0.295661,671.604,779.629)">
                <path d="M307.961,1009.11C304.644,1004.23 302.07,998.7 300.496,992.614C293.442,965.335 396.563,798.989 449.258,721.979C498.798,649.581 716.037,279.87 739.814,239.779C741.722,236.562 747.515,239.165 745.378,243.483C735.822,262.801 641.349,451.081 572.093,593.781C643.33,585.367 660.538,588.201 731.762,596.383C775.738,601.434 784.365,649.491 761.274,650.502C761.274,730.401 761.086,738.78 761.086,778.65C761.086,827.472 892.129,843.766 892.129,910.993C892.129,990.694 910.76,1124.38 875.149,1148.54C767.843,1221.34 566.243,1218.78 422.779,1160.46C389.091,1146.76 385.372,1078.63 387.299,1010.08C380.571,1020.15 374.416,1026.92 369.091,1029.28C362.624,1032.14 355.583,1033.22 348.536,1032.75C342.114,1051.79 345.778,1092.23 334.767,1106.23C295.501,1156.18 243.636,1162.51 189.256,1237.37C262.095,1097.74 294.08,1036.03 307.961,1009.11ZM524.517,693.378C514.623,714.633 507.021,731.573 502.656,742.355C493.822,764.179 483.216,791.836 471.75,821.347C499.963,803.9 524.786,789.004 524.786,777.452C524.786,746.359 524.599,730.408 524.517,693.378Z" style="fill:rgb(255,0,0);"/>
            </g>
            <path id="Merged2" serif:id="Merged" d="M854.845,953.87C860.44,954.197 866.478,954.936 875.354,955.956C888.356,957.449 890.907,971.658 884.08,971.956C884.08,995.579 884.024,998.057 884.024,1009.85C884.024,1024.28 922.768,1029.1 922.768,1048.97C922.768,1072.54 928.277,1112.06 917.748,1119.21C902.688,1129.42 881.345,1134.62 858.546,1135.42C837.128,1134.69 815.211,1130.3 796.603,1122.73C786.643,1118.68 785.543,1098.54 786.113,1078.27C784.124,1081.25 782.304,1083.25 780.73,1083.94C778.818,1084.79 776.736,1085.11 774.652,1084.97C774.017,1086.86 773.716,1089.44 773.475,1092.21C773.335,1087.71 773.377,1082.99 773.51,1078.27C771.521,1081.25 769.701,1083.25 768.126,1083.94C766.215,1084.79 764.133,1085.11 762.049,1084.97C760.151,1090.6 761.234,1102.56 757.978,1106.7C752.575,1113.57 746.365,1117.65 739.65,1122.28C752.851,1096.94 759.419,1084.26 762.656,1077.98C761.675,1076.54 760.914,1074.9 760.449,1073.11C758.363,1065.04 788.852,1015.86 804.432,993.089C808.877,986.593 817.89,971.999 828.487,954.485L828.146,955.186C833.374,954.569 837.618,954.156 841.364,953.922L840.749,955.186C846.39,954.52 850.885,954.093 854.845,953.87ZM814.08,984.633C811.155,990.918 808.907,995.926 807.617,999.114C805.005,1005.57 801.869,1013.74 798.479,1022.47C806.82,1017.31 814.16,1012.91 814.16,1009.49C814.16,1000.3 814.104,995.582 814.08,984.633ZM826.683,984.633C823.758,990.918 821.51,995.926 820.22,999.114C817.608,1005.57 814.472,1013.74 811.082,1022.47C819.423,1017.31 826.763,1012.91 826.763,1009.49C826.763,1000.3 826.707,995.582 826.683,984.633Z"/>
        </g>
    </g>
</svg>
